<svg width="48" height="48" viewBox="0 0 48 48" fill="none" xmlns="http://www.w3.org/2000/svg">
<rect x="1" y="1" width="46" height="46" rx="23" stroke="black" stroke-width="2"/>
<path d="M23.6425 24.588C23.6425 29.268 21.2845 31.734 17.4145 31.734C13.5265 31.734 11.2585 29.268 11.2585 24.588C11.2585 19.926 13.7065 17.766 17.4325 17.766C21.1405 17.766 23.6425 19.926 23.6425 24.588ZM17.4325 20.124C15.3445 20.124 13.9585 21.33 13.9585 24.678C13.9585 28.098 15.3265 29.322 17.4325 29.322C19.5565 29.322 20.9065 28.08 20.9065 24.678C20.9065 21.348 19.5385 20.124 17.4325 20.124ZM31.0618 29.538C33.3658 29.538 34.3018 28.8 34.3018 27.522C34.3018 26.244 33.3658 25.596 31.0618 25.596C28.7578 25.596 27.8218 26.244 27.8218 27.522C27.8218 28.8 28.7578 29.538 31.0618 29.538ZM31.0798 19.908C28.9918 19.908 28.0378 20.538 28.0378 21.798C28.0378 22.986 28.9558 23.634 31.0618 23.634C33.1678 23.634 34.1038 22.986 34.1038 21.798C34.1038 20.538 33.1498 19.908 31.0798 19.908ZM33.7258 24.588V24.678C34.1578 24.732 34.5358 24.804 34.8958 24.93C36.3358 25.452 36.8578 26.352 36.8578 27.882C36.8578 30.276 34.8238 31.716 31.0798 31.716C27.3178 31.716 25.3018 30.276 25.3018 27.882C25.3018 26.352 25.8418 25.452 27.2278 24.93C27.5698 24.822 27.9478 24.732 28.3798 24.678V24.588C27.9118 24.498 27.5158 24.39 27.1738 24.246C26.0218 23.76 25.4638 22.86 25.4638 21.492C25.4638 19.188 27.1558 17.784 31.0798 17.784C34.9678 17.784 36.6778 19.17 36.6778 21.474C36.6778 22.842 36.1018 23.76 34.9498 24.246C34.5898 24.372 34.1938 24.498 33.7258 24.588Z" fill="#020B13"/>
</svg>
