<svg width="48" height="48" viewBox="0 0 48 48" fill="none" xmlns="http://www.w3.org/2000/svg">
<rect x="1" y="1" width="46" height="46" rx="23" stroke="black" stroke-width="2"/>
<path d="M23.6513 24.588C23.6513 29.268 21.2933 31.734 17.4233 31.734C13.5353 31.734 11.2673 29.268 11.2673 24.588C11.2673 19.926 13.7153 17.766 17.4413 17.766C21.1493 17.766 23.6513 19.926 23.6513 24.588ZM17.4413 20.124C15.3533 20.124 13.9673 21.33 13.9673 24.678C13.9673 28.098 15.3353 29.322 17.4413 29.322C19.5653 29.322 20.9153 28.08 20.9153 24.678C20.9153 21.348 19.5473 20.124 17.4413 20.124ZM31.9706 22.86C34.9946 22.86 36.6506 24.354 36.6506 27.036C36.6506 30.096 34.7606 31.716 31.2326 31.716C27.4166 31.716 25.7606 30.15 25.7606 27.702C25.7606 27.486 25.7606 27.288 25.7786 27.054C26.1386 27.108 26.5166 27.108 26.9846 27.108C27.4886 27.108 27.9206 27.108 28.2446 27.054C28.2446 27.18 28.2266 27.306 28.2266 27.414C28.2266 28.728 29.0906 29.646 31.1966 29.646C33.2486 29.646 34.1666 28.8 34.1666 27.018C34.1666 25.272 33.1946 24.516 31.2146 24.516C29.7926 24.516 28.7486 24.948 28.2626 25.578C27.5066 25.398 26.5706 25.29 25.9046 25.308C25.9406 24.498 25.9226 23.184 25.9226 22.158C25.9226 20.574 25.9226 18.99 25.8686 18C27.4166 18.036 28.8566 18.036 31.0706 18.036C33.2126 18.036 34.5086 18.018 36.2546 18C36.2366 18.27 36.2186 18.576 36.2186 19.116C36.2186 19.584 36.2366 19.89 36.2546 20.286C35.3366 20.232 33.1406 20.214 32.4206 20.214C31.4126 20.214 29.7026 20.214 28.2986 20.232C28.2806 20.88 28.2806 21.6 28.2806 22.374C28.2806 22.878 28.2986 23.382 28.2986 23.868C29.1266 23.31 30.3326 22.86 31.9706 22.86Z" fill="#020B13"/>
</svg>
