<svg width="48" height="48" viewBox="0 0 48 48" fill="none" xmlns="http://www.w3.org/2000/svg">
<rect x="1" y="1" width="46" height="46" rx="23" stroke="black" stroke-width="2"/>
<path d="M27.1054 24.588C27.1054 29.268 24.7474 31.734 20.8774 31.734C16.9894 31.734 14.7214 29.268 14.7214 24.588C14.7214 19.926 17.1694 17.766 20.8954 17.766C24.6034 17.766 27.1054 19.926 27.1054 24.588ZM20.8954 20.124C18.8074 20.124 17.4214 21.33 17.4214 24.678C17.4214 28.098 18.7894 29.322 20.8954 29.322C23.0194 29.322 24.3694 28.08 24.3694 24.678C24.3694 21.348 23.0014 20.124 20.8954 20.124ZM29.6827 31.518C29.7367 29.628 29.7547 27.63 29.7547 24.75C29.7547 21.996 29.6647 20.466 29.6107 19.224C30.1867 18.936 30.7807 18.468 31.1767 18C31.4107 18.018 31.6447 18.018 31.8607 18.018C32.1307 18.018 32.3287 18.018 32.4907 18C32.4367 19.494 32.4187 21.852 32.4187 24.75C32.4187 27.612 32.4367 29.61 32.4907 31.5C31.9147 31.464 31.5187 31.464 31.1407 31.464C30.7267 31.464 30.2767 31.482 29.6827 31.518Z" fill="#020B13"/>
</svg>
