<svg width="48" height="48" viewBox="0 0 48 48" fill="none" xmlns="http://www.w3.org/2000/svg">
<rect x="1" y="1" width="46" height="46" rx="23" stroke="black" stroke-width="2"/>
<path d="M23.3525 24.588C23.3525 29.268 20.9945 31.734 17.1245 31.734C13.2365 31.734 10.9685 29.268 10.9685 24.588C10.9685 19.926 13.4165 17.766 17.1425 17.766C20.8505 17.766 23.3525 19.926 23.3525 24.588ZM17.1425 20.124C15.0545 20.124 13.6685 21.33 13.6685 24.678C13.6685 28.098 15.0365 29.322 17.1425 29.322C19.2665 29.322 20.6165 28.08 20.6165 24.678C20.6165 21.348 19.2485 20.124 17.1425 20.124ZM35.6317 24.732V25.992C36.3157 25.992 36.8557 25.974 37.3957 25.956C37.3777 26.316 37.3777 26.712 37.3777 27.09C37.3777 27.486 37.3777 27.864 37.3957 28.242L35.6497 28.224C35.6677 29.43 35.7037 30.492 35.7577 31.5H32.9137C32.9677 30.6 33.0037 29.322 33.0217 28.188C32.1217 28.188 31.2217 28.188 30.2677 28.188C28.7557 28.188 26.9017 28.206 25.1557 28.242C25.4257 26.64 26.2537 19.494 26.3077 18H29.0797C28.9177 19.422 28.2157 23.616 28.0177 25.956C29.2057 25.992 30.8077 25.992 33.0397 25.992C33.0397 24.102 33.0037 19.71 32.9677 18H35.6857C35.6137 19.926 35.6317 21.888 35.6317 24.732Z" fill="#020B13"/>
</svg>
