<svg width="115" height="93" viewBox="0 0 115 93" fill="none" xmlns="http://www.w3.org/2000/svg">
<path d="M0.32123 79.531C8.03073 73.5448 13.9199 67.5586 17.9888 61.5724C22.2719 55.3724 24.4134 49.6 24.4134 44.2552C23.5568 44.6828 22.379 45.0034 20.8799 45.2173C19.595 45.2173 18.4171 45.2173 17.3464 45.2173C12.4209 45.2173 8.24488 43.2931 4.81844 39.4448C1.60615 35.3828 0 30.4655 0 24.6931C0 17.6379 2.35568 11.7586 7.06704 7.05518C11.7784 2.35173 17.6676 0 24.7346 0C32.23 0 38.1192 2.77931 42.4022 8.33794C46.6853 13.6828 48.8268 20.9517 48.8268 30.1448C48.8268 41.0483 45.5074 51.8448 38.8687 62.5345C32.23 73.2241 22.486 83.3793 9.63687 93L0.32123 79.531ZM66.4944 79.531C74.2039 73.5448 80.0931 67.5586 84.162 61.5724C88.4451 55.3724 90.5866 49.6 90.5866 44.2552C89.73 44.6828 88.5521 45.0034 87.0531 45.2173C85.7682 45.2173 84.5903 45.2173 83.5195 45.2173C78.594 45.2173 74.4181 43.2931 70.9916 39.4448C67.7793 35.3828 66.1732 30.4655 66.1732 24.6931C66.1732 17.6379 68.5289 11.7586 73.2402 7.05518C77.9516 2.35173 83.8408 0 90.9078 0C98.4032 0 104.292 2.77931 108.575 8.33794C112.858 13.6828 115 20.9517 115 30.1448C115 41.0483 111.681 51.8448 105.042 62.5345C98.4032 73.2241 88.6592 83.3793 75.8101 93L66.4944 79.531Z" fill="#1561D2" fill-opacity="0.1"/>
</svg>
