<svg width="48" height="48" viewBox="0 0 48 48" fill="none" xmlns="http://www.w3.org/2000/svg">
<rect x="1" y="1" width="46" height="46" rx="23" stroke="black" stroke-width="2"/>
<path d="M23.8535 24.588C23.8535 29.268 21.4955 31.734 17.6255 31.734C13.7375 31.734 11.4695 29.268 11.4695 24.588C11.4695 19.926 13.9175 17.766 17.6435 17.766C21.3515 17.766 23.8535 19.926 23.8535 24.588ZM17.6435 20.124C15.5555 20.124 14.1695 21.33 14.1695 24.678C14.1695 28.098 15.5375 29.322 17.6435 29.322C19.7675 29.322 21.1175 28.08 21.1175 24.678C21.1175 21.348 19.7495 20.124 17.6435 20.124ZM25.5127 30.726V29.934C25.5127 27.144 27.3127 26.01 30.2647 25.002C32.8747 24.084 33.9547 23.436 33.9547 21.96C33.9547 20.682 33.0547 19.944 31.1287 19.944C29.0947 19.944 28.2307 20.934 28.2307 22.338C28.2307 22.716 28.2487 23.04 28.2667 23.454C27.9967 23.418 27.5287 23.418 27.0607 23.418C26.5927 23.418 26.1067 23.418 25.8007 23.454C25.7647 23.004 25.7287 22.662 25.7287 22.248C25.7287 19.602 27.5827 17.784 31.1647 17.784C34.8367 17.784 36.4567 19.53 36.4567 21.816C36.4567 24.534 34.6747 25.542 31.7227 26.568C29.0407 27.468 28.1767 27.99 28.1047 29.304C29.4367 29.304 30.9667 29.286 31.9027 29.286C33.5587 29.286 35.0527 29.286 36.3667 29.214C36.3487 29.592 36.3487 30.06 36.3487 30.546C36.3487 30.942 36.3487 31.284 36.3667 31.5H25.4947C25.5127 31.32 25.5127 31.032 25.5127 30.726Z" fill="#020B13"/>
</svg>
