<svg width="48" height="48" viewBox="0 0 48 48" fill="none" xmlns="http://www.w3.org/2000/svg">
<rect x="1" y="1" width="46" height="46" rx="23" stroke="black" stroke-width="2"/>
<path d="M24.7148 24.588C24.7148 29.268 22.3568 31.734 18.4868 31.734C14.5988 31.734 12.3308 29.268 12.3308 24.588C12.3308 19.926 14.7788 17.766 18.5048 17.766C22.2128 17.766 24.7148 19.926 24.7148 24.588ZM18.5048 20.124C16.4168 20.124 15.0308 21.33 15.0308 24.678C15.0308 28.098 16.3988 29.322 18.5048 29.322C20.6288 29.322 21.9788 28.08 21.9788 24.678C21.9788 21.348 20.6108 20.124 18.5048 20.124ZM25.7135 18H36.0275C36.0095 18.324 36.0095 18.864 36.0095 19.242C36.0095 19.764 36.0095 20.106 36.0275 20.322C33.7955 23.058 31.7255 26.946 31.6175 31.5C31.1855 31.482 30.6815 31.482 30.2495 31.482C29.6735 31.482 29.1515 31.482 28.6835 31.5C28.8275 27.144 31.2935 22.518 33.4535 20.286C30.9875 20.286 28.1255 20.304 25.7135 20.322C25.7495 19.926 25.7675 19.566 25.7675 19.188C25.7675 18.792 25.7675 18.396 25.7135 18Z" fill="#020B13"/>
</svg>
