<svg width="48" height="48" viewBox="0 0 48 48" fill="none" xmlns="http://www.w3.org/2000/svg">
<rect x="1" y="1" width="46" height="46" rx="23" stroke="black" stroke-width="2"/>
<path d="M23.4316 24.588C23.4316 29.268 21.0736 31.734 17.2036 31.734C13.3156 31.734 11.0476 29.268 11.0476 24.588C11.0476 19.926 13.4956 17.766 17.2216 17.766C20.9296 17.766 23.4316 19.926 23.4316 24.588ZM17.2216 20.124C15.1336 20.124 13.7476 21.33 13.7476 24.678C13.7476 28.098 15.1156 29.322 17.2216 29.322C19.3456 29.322 20.6956 28.08 20.6956 24.678C20.6956 21.348 19.3276 20.124 17.2216 20.124ZM31.2288 29.718C33.2448 29.718 34.1808 28.872 34.1808 27.144C34.1808 25.596 33.2628 24.948 31.3188 24.948C29.3388 24.948 28.1508 25.668 28.1508 27.162C28.1508 28.782 29.2668 29.718 31.2288 29.718ZM27.6108 25.272L27.6648 25.29C28.3668 23.976 29.8968 23.274 31.9308 23.274C35.3868 23.274 36.8088 24.516 36.8088 27.09C36.8088 29.952 35.0268 31.734 31.3728 31.734C27.5208 31.734 25.2168 29.88 25.2168 24.552C25.2168 20.358 27.2508 17.784 31.3188 17.784C34.8828 17.784 36.7008 19.116 36.7008 21.942V22.374C36.3228 22.338 35.9448 22.338 35.4588 22.338C34.9548 22.338 34.5048 22.338 34.1988 22.374V22.032C34.1988 20.718 33.4428 19.782 31.3008 19.782C29.0148 19.782 27.7188 21.024 27.6828 23.544C27.6468 24.066 27.6288 24.642 27.6108 25.272Z" fill="#020B13"/>
</svg>
