<svg width="48" height="48" viewBox="0 0 48 48" fill="none" xmlns="http://www.w3.org/2000/svg">
<rect x="1" y="1" width="46" height="46" rx="23" stroke="black" stroke-width="2"/>
<path d="M23.5986 24.588C23.5986 29.268 21.2406 31.734 17.3706 31.734C13.4826 31.734 11.2146 29.268 11.2146 24.588C11.2146 19.926 13.6626 17.766 17.3886 17.766C21.0966 17.766 23.5986 19.926 23.5986 24.588ZM17.3886 20.124C15.3006 20.124 13.9146 21.33 13.9146 24.678C13.9146 28.098 15.2826 29.322 17.3886 29.322C19.5126 29.322 20.8626 28.08 20.8626 24.678C20.8626 21.348 19.4946 20.124 17.3886 20.124ZM33.6818 24.57V24.678C34.0778 24.732 34.4198 24.804 34.7438 24.912C36.1838 25.434 36.7418 26.352 36.7418 27.882C36.7418 30.258 34.6538 31.734 31.0538 31.734C27.1838 31.734 25.4378 30.168 25.4378 27.558C25.4378 27.378 25.4378 27.252 25.4558 27.072C25.8158 27.108 26.1938 27.108 26.6618 27.108C27.1658 27.108 27.5978 27.108 27.9218 27.072C27.9038 27.198 27.9038 27.342 27.9038 27.432C27.9038 28.818 28.7858 29.646 31.0358 29.646C33.3758 29.646 34.2218 28.872 34.2218 27.576C34.2218 26.316 33.3758 25.65 31.1798 25.65C30.5318 25.65 29.8478 25.632 29.0918 25.686C29.1278 25.362 29.1278 24.966 29.1278 24.588C29.1278 24.21 29.1278 23.922 29.1098 23.634C29.5598 23.652 30.2618 23.688 31.1798 23.688C33.3218 23.688 34.0778 22.932 34.0778 21.816C34.0778 20.628 33.1598 19.872 31.1078 19.872C28.8578 19.872 28.0118 20.718 28.0118 22.014V22.428C27.6878 22.392 27.2738 22.374 26.7698 22.374C26.2838 22.374 25.9238 22.392 25.5458 22.428V21.78C25.5458 19.512 27.1298 17.766 31.1078 17.766C34.8158 17.766 36.6338 19.242 36.6338 21.438C36.6338 22.86 36.0398 23.778 34.8338 24.264C34.5098 24.39 34.1318 24.498 33.6818 24.57Z" fill="#020B13"/>
</svg>
